<svg width="101" height="153" viewBox="0 0 101 153" fill="none" xmlns="http://www.w3.org/2000/svg">
<path fill-rule="evenodd" clip-rule="evenodd" d="M25.3964 0L86.4389 35.0595L101 43.9741V91.7968L86.355 99.1645L62.4835 114.109L51.0708 107.811L51.0491 137.125L25.7384 153L0 142.765V16.1792L25.3964 0ZM51.0763 100.488L62.2629 106.662L72.1674 100.461L72.1625 93.1786L51.0904 81.5056L51.0763 100.488ZM44.4307 81.8974L44.4197 96.8145L31.8034 89.8522L44.4307 81.8974ZM28.7773 84.1587L47.6519 72.2684L72.1576 85.8433L72.1405 60.5177L60.8327 54.4866L28.802 36.1504L28.7773 84.1587ZM28.8058 28.7573L64.1777 49.0062L78.7973 56.8037L78.8194 89.5336L84.7358 92.811L94.3407 87.9789V47.4323L82.916 40.438L28.8157 9.36569L28.8058 28.7573ZM22.1562 9.69023L22.1484 24.9462L9.53928 17.728L22.1562 9.69023ZM6.65934 23.4747L22.1446 32.3394L22.0971 124.859L6.65934 134.714V23.4747ZM10.3271 140.003L22.0649 144.671L22.0859 132.497L10.3271 140.003ZM28.7473 131.305L40.6677 136.047L28.7262 143.536L28.7473 131.305ZM44.3945 130.661L44.4142 104.137L28.8091 95.5253L28.7592 124.442L44.3945 130.661Z" fill="url(#paint0_linear_108_19)"/>
<defs>
<linearGradient id="paint0_linear_108_19" x1="-6.03053" y1="24.436" x2="92.4557" y2="89.0564" gradientUnits="userSpaceOnUse">
<stop stop-color="white"/>
<stop offset="1" stop-color="white"/>
</linearGradient>
</defs>
</svg>
