<svg width="223" height="37" viewBox="0 0 223 37" fill="none" xmlns="http://www.w3.org/2000/svg">
<path d="M0.683594 0.5H32.2431L37.6877 5.99549V18.4621L32.1922 24.0085H7.60384V36.1189H0.683594V0.5ZM29.0883 18.2077L30.8692 16.4267V8.08174L29.0883 6.30079H7.60384V18.2077H29.0883Z" fill="white"/>
<path d="M62.3259 0.5H70.4921L87.3512 35.9407H79.4713L75.7175 28.0931L66.9057 8.50028L53.7495 35.9407H45.4668L62.3259 0.5Z" fill="white"/>
<path d="M190.261 35.9407L198.428 35.9407L215.287 0.500015L207.407 0.500016L203.653 8.34759L194.841 27.9404L181.685 0.500018L173.402 0.500019L190.261 35.9407Z" fill="white"/>
<path fill-rule="evenodd" clip-rule="evenodd" d="M99.834 0.5H106.68V4.72033L119.568 17.2135L111.111 18.4217L99.834 7.55624V0.5Z" fill="#A37E2C"/>
<path fill-rule="evenodd" clip-rule="evenodd" d="M99.834 35.3365L106.68 35.3365L106.68 31.0601L119.639 17.3499L114.664 12.647L99.834 28.3365L99.834 35.3365Z" fill="#A37E2C"/>
<path fill-rule="evenodd" clip-rule="evenodd" d="M139.574 0.5H132.728V4.72033L119.84 17.2135L128.298 18.4217L139.574 7.55624V0.5Z" fill="#A37E2C"/>
<path fill-rule="evenodd" clip-rule="evenodd" d="M139.574 35.3365L132.728 35.3365L132.728 31.0601L119.769 17.3499L124.744 12.647L139.574 28.3365L139.574 35.3365Z" fill="#A37E2C"/>
<rect x="153.398" y="0.5" width="7.65196" height="35.0379" fill="white"/>
<rect width="6.64298" height="13.286" transform="matrix(3.90555e-08 -1 -1 -4.89223e-08 222.062 7.14294)" fill="white"/>
</svg>
